<svg version="1.1" xmlns="http://www.w3.org/2000/svg" xmlns:xlink="http://www.w3.org/1999/xlink" width="656.43013" height="535.75475" viewBox="0,0,656.43013,535.75475"><g transform="translate(88.21507,87.87738)"><g data-paper-data="{&quot;isPaintingLayer&quot;:true}" fill="#66ecff" fill-rule="nonzero" stroke="none" stroke-width="0.5" stroke-linecap="butt" stroke-linejoin="miter" stroke-miterlimit="10" stroke-dasharray="" stroke-dashoffset="0" style="mix-blend-mode: normal"><path d="M534.12783,200.24154l0.15068,2.29797l0.22915,2.29148v4.39624l1.29684,7.78103l0.15068,2.29797l0.22915,2.29148v27.32655l0.24408,0.73225l0.96557,4.27607l0.00133,0.09727l0.02949,0.09271l0.4362,4.36197v36.54576l0.58492,2.06162l-2.69861,8.19768l3.53075,2.35383l2.968,0.5936l4.19172,1.28318l0.43246,0.23932l2.48276,0.68829l2.78045,2.22436l3.11548,1.7241l1.58176,2.03369l0.38596,0.30877l2.78253,3.38742l1.76203,2.64304l1.27235,1.63588l0.0202,0.30294l0.29877,0.44816l0.08496,0.15993l1.65639,1.47523l2.48128,9.77008l0.61653,2.14445l-0.02372,0.18974l0.04707,0.18533l-0.34579,2.20436l-1.2503,10.0024l-1.46062,1.66928l-0.06447,0.16923l-1.67667,3.35334l-2.34087,3.70639l-0.06784,0.06972l-0.04469,0.08641l-2.77594,3.39282l-0.14998,0.14998l-1.32736,2.65472l-2.34087,3.70639l-0.06784,0.06972l-0.04469,0.08641l-2.77594,3.39282l-1.3987,1.3987l-1.45151,2.17726l-4.68824,7.81373l-0.02642,0.03549l-0.50308,1.2074l-1.43783,1.39897l-0.65091,0.87408l-2.62312,2.31146l-2.50584,2.43811l-0.92144,0.58196l-1.50513,1.3263l-1.24242,0.409l-0.03741,0.02363l-3.35334,1.67667l-2.5375,0.96666l-0.28057,0.15527l-0.64657,0.19793l-0.6319,0.24072l-0.3168,0.04969l-2.59646,0.79483l-4.71743,0.94348l-1.35444,0.67722l-0.53478,0.46186l-1.06957,0.34031l-0.40404,0.20203l-4.09654,1.56058l-2.04938,0.32148l-1.9768,0.62898l-4.36197,0.4362h-0.45174l-1.10885,0.17393l-0.68487,-0.17393h-64.34478l-0.26326,0.15124l-0.3018,-0.02209l-12.82276,3.49711l-6.90102,2.76041l-1.81716,0.52418l-1.78004,0.63899l-13.41338,3.35334l-2.148,0.31434l-0.2608,0.08298l-0.96708,0.0967l-0.96165,0.14073l-0.27314,-0.01725l-2.16011,0.21601h-9.75275l-9.77268,1.3961l-1.97804,0.08358l-0.9343,0.09343c-1.31751,0.91589 -2.55051,1.7766 -3.66388,2.5585c-8.78145,6.16703 -16.72524,14.1542 -26.28995,19.38007c-12.59724,6.88275 -32.39356,8.42967 -46.09159,6.28861c-7.67444,-1.19954 -16.5436,-2.04085 -24.35099,-4.50072c-8.05252,-2.5371 -16.32605,-7.48862 -23.59392,-9.90888c-6.59624,-2.1966 -21.48417,-3.88967 -30.37059,-8.27789c-2.73288,-1.34952 -19.20068,-9.1128 -28.02852,-14.05132c-8.24936,-4.61491 -16.1107,-9.99051 -24.71565,-13.90255c-8.5189,-3.87293 -17.58609,-6.1447 -26.38157,-9.33904h-73.27266l-1.73183,2.01522l-3.17381,3.0239l-1.7944,1.10716l-2.3541,2.64319l-3.2798,0.83296l-1.14202,0.70464l-3.97359,0.59457l-3.8942,0.98901l-1.3257,-0.20796l-3.34665,0.50076l-3.19337,-1.52665l-2.083,-0.32675l-4.09654,-1.56058l-10.06004,-5.03001l-1.18183,-0.74642l-2.47278,-0.66831l-2.31558,-2.6812l-0.99716,-0.09972l-0.09271,-0.02949l-0.09727,-0.00133l-4.27607,-0.96557l-0.73225,-0.24408h-5.5298l-1.39087,-0.13909l-2.5106,0.50809l-6.68816,-2.78674l-3.36868,-1.07185l-0.74225,-0.64103l-0.9053,-0.37721l-2.46522,-2.53369l-5.48357,-4.73581l-0.66831,-2.47278l-0.74642,-1.18183l-1.42551,-2.85102c-2.04246,-3.87939 -3.19839,-8.29821 -3.19839,-12.98701c0,-0.14392 0.00109,-0.28756 0.00326,-0.43097l-0.15929,-1.01551l-0.30188,-0.1424l-1.2204,-0.54708l-0.11118,-0.08103l-1.4236,-0.67152l-7.46402,-4.47842l-2.39441,-1.1972l-1.21025,-0.76437l-1.91093,-0.79622l-2.70109,-2.77612l-6.29503,2.62293l-3.01166,-0.6095l-0.88981,0.2405l-6.19496,-1.67432l-6.28972,-1.27292l-0.68832,-0.61304l-2.96627,-0.8017l-6.88497,-7.97208l-1.94511,-1.73236l-2.00895,-7.91024l-0.50209,-1.57799l-0.06582,-0.65812l-0.54432,-2.14327l0.20152,-1.28471l-0.02758,-0.27587v-58.68356l0.27372,-2.73719l0.2684,-2.73772l3.20139,-16.00692l1.28652,-9.00561v-202.57018l0.30446,-3.04457l-0.00925,-0.31073l0.09037,-0.50054l0.05061,-0.50612l0.09426,-0.29624l0.54367,-3.01107l3.35334,-11.73671l0.22448,-0.56537l0.13399,-0.59336l3.35334,-10.06004l1.79318,-4.00019l0.31537,-0.43271l0.19197,-0.49984l2.38429,-3.67862l4.85917,-6.07395l0.35404,-0.70808l2.34087,-3.70639l0.95122,-0.97764l0.73378,-1.14985l3.07171,-3.12756l1.88334,-1.56945l0.38258,-0.3932l0.17853,-0.07439l2.60078,-2.16731v-14.58967l0.11369,-1.13689l-0.18779,-1.69761l3.67599,-12.13522l2.55016,-2.07147l5.62526,-6.51346l3.58686,-0.96942l1.21443,-0.98646l5.73505,-0.89178l5.60295,-1.51431l1.51039,0.40822l3.67144,-0.57089l7.7858,3.66744l3.17167,0.85721l8.28775,9.59634l0.51786,1.62757l0.56562,0.99273l4.55474,10.24818h30.29497l3.70589,0.37059l0.20664,-0.00198l0.22304,0.04495l0.2264,0.02263l0.19691,0.06266l3.65099,0.73565l13.42812,4.13173l7.9972,-6.90667l9.59634,-3.05337l2.41173,-0.24118l1.20227,-0.60113l1.086,-0.41371l1.03071,-0.53684l5.68454,-2.27381l2.61148,-1.74098l0.85042,-0.45179l0.78441,-0.5586l2.25977,-1.2913l12.71969,-7.90683l5.4992,-3.928l7.78928,-6.23142l2.09792,-1.35976l1.09987,-0.74452l0.13134,-0.05348l0.34948,-0.22652l3.64116,-1.39842l5.20485,-2.11934l0.29968,0.00528l0.25521,-0.09802l5.12233,0.19278l7.00057,0.12336l0.21087,0.14804l0.33702,0.01269l7.39442,5.41511l5.74077,4.03025l0.12042,0.26203l0.23266,0.17038l2.80093,6.43071l3.82716,8.32788l-0.05496,0.33275l0.10289,0.23622l-1.12441,6.05199h6.18266l1.53765,0.15376l1.54523,0.01698l60.36024,6.7067l1.609,0.3435l1.63161,0.21137l28.3405,6.59081c0.30555,-1.52631 0.73558,-3.00768 1.27904,-4.43305c0.49655,-2.23095 1.22319,-4.353 2.53926,-6.19611c2.37558,-3.32695 5.05157,-5.44297 8.00397,-7.04853c3.07832,-2.06852 6.59116,-3.54027 10.37277,-4.24952c4.56356,-1.70586 8.22762,-6.91185 12.81328,-9.26875c11.02285,-5.66542 23.22852,-11.29186 35.95811,-11.3306c30.51653,-0.09288 61.31273,-3.6913 91.54899,0.4362c11.02794,1.50541 18.57875,9.48831 28.77633,12.34529c13.70431,3.83945 26.79933,8.21173 39.65139,14.44988c2.88513,1.40039 6.84391,1.49792 9.91222,3.08496c1.18707,0.614 3.32955,2.91237 4.46629,3.61075c1.57217,0.96589 4.11786,1.0067 5.88551,1.921c4.64559,2.40289 9.18785,5.67854 13.09251,8.89988c12.07871,9.96493 16.94963,26.26901 21.17463,40.77788c2.96717,10.18944 5.23403,20.99755 7.88584,31.08415c0.8196,3.11749 2.39423,6.00854 2.93418,9.22171c3.70982,22.07675 2.19245,56.51828 2.11287,74.78225c-0.06402,14.69339 -6.36594,28.28718 -13.00728,40.98814c-4.11429,7.86821 -12.99676,17.97873 -15.6912,26.35238c-0.8416,2.61548 -1.29944,5.35293 -1.65506,8.11217z"/></g></g></svg>